<svg width="127" height="29" viewBox="0 0 127 29" fill="none" xmlns="http://www.w3.org/2000/svg">
<path d="M0 14.5C0 6.49187 6.49187 0 14.5 0H112.5C120.508 0 127 6.49187 127 14.5C127 22.5081 120.508 29 112.5 29H14.5C6.49187 29 0 22.5081 0 14.5Z" fill="#34D399"/>
<path d="M31.3086 15.5195H29.6035V19H28.5254V10.4688H31.0273C31.4258 10.4766 31.8008 10.5332 32.1523 10.6387C32.5039 10.7441 32.8125 10.9023 33.0781 11.1133C33.3398 11.3242 33.5449 11.5898 33.6934 11.9102C33.8457 12.2266 33.9219 12.5996 33.9219 13.0293C33.9219 13.3066 33.8809 13.5605 33.7988 13.791C33.7207 14.0215 33.6113 14.2305 33.4707 14.418C33.3301 14.6055 33.1621 14.7715 32.9668 14.916C32.7715 15.0605 32.5566 15.1836 32.3223 15.2852L34.1328 18.9297L34.127 19H32.9844L31.3086 15.5195ZM29.6035 14.6289H31.0566C31.2988 14.625 31.5273 14.5879 31.7422 14.5176C31.957 14.4434 32.1465 14.3379 32.3105 14.2012C32.4707 14.0645 32.5977 13.8984 32.6914 13.7031C32.7852 13.5039 32.832 13.2754 32.832 13.0176C32.832 12.7441 32.7871 12.5059 32.6973 12.3027C32.6074 12.0957 32.4824 11.9219 32.3223 11.7812C32.1621 11.6445 31.9707 11.541 31.748 11.4707C31.5293 11.4004 31.2891 11.3633 31.0273 11.3594H29.6035V14.6289Z" fill="#E5E7EB"/>
<path d="M38.4922 19.1172C38.0469 19.1172 37.6367 19.041 37.2617 18.8887C36.8906 18.7363 36.5723 18.5234 36.3066 18.25C36.041 17.9766 35.834 17.6523 35.6855 17.2773C35.5371 16.9023 35.4629 16.4941 35.4629 16.0527V15.8066C35.4629 15.2949 35.5449 14.8379 35.709 14.4355C35.873 14.0293 36.0918 13.6855 36.3652 13.4043C36.6348 13.127 36.9414 12.9141 37.2852 12.7656C37.6328 12.6172 37.9883 12.543 38.3516 12.543C38.8086 12.543 39.207 12.623 39.5469 12.7832C39.8906 12.9395 40.1758 13.1562 40.4023 13.4336C40.6289 13.7148 40.7969 14.0449 40.9062 14.4238C41.0195 14.8027 41.0762 15.2129 41.0762 15.6543V16.1406H36.5469V16.1816C36.5742 16.4902 36.6348 16.7617 36.7285 16.9961C36.8262 17.2305 36.959 17.4375 37.127 17.6172C37.2988 17.8086 37.5059 17.959 37.748 18.0684C37.9902 18.1777 38.2578 18.2324 38.5508 18.2324C38.9375 18.2324 39.2812 18.1543 39.582 17.998C39.8828 17.8418 40.1328 17.6348 40.332 17.377L40.9941 17.8926C40.7832 18.2129 40.4668 18.498 40.0449 18.748C39.627 18.9941 39.1094 19.1172 38.4922 19.1172ZM38.3516 13.4336C38.1328 13.4336 37.9258 13.4746 37.7305 13.5566C37.5352 13.6348 37.3594 13.75 37.2031 13.9023C37.0469 14.0586 36.9141 14.25 36.8047 14.4766C36.6992 14.6992 36.625 14.957 36.582 15.25H39.9922V15.1973C39.9922 15.002 39.9551 14.793 39.8809 14.5703C39.8066 14.3438 39.7031 14.1484 39.5703 13.9844C39.4375 13.8203 39.2695 13.6875 39.0664 13.5859C38.8672 13.4844 38.6289 13.4336 38.3516 13.4336Z" fill="#E5E7EB"/>
<path d="M42.6934 15.7773C42.6934 15.3047 42.752 14.8711 42.8691 14.4766C42.9902 14.0781 43.1621 13.7363 43.3848 13.4512C43.6035 13.166 43.8691 12.9434 44.1816 12.7832C44.4941 12.623 44.8438 12.543 45.2305 12.543C45.6094 12.543 45.9395 12.6074 46.2207 12.7363C46.5059 12.8613 46.752 13.0449 46.959 13.2871V10H48.043V19H47.0469L47 18.332C46.7891 18.5898 46.5371 18.7852 46.2441 18.918C45.9512 19.0508 45.6094 19.1172 45.2188 19.1172C44.8359 19.1172 44.4883 19.0352 44.1758 18.8711C43.8672 18.707 43.6035 18.4805 43.3848 18.1914C43.166 17.9023 42.9961 17.5625 42.875 17.1719C42.7539 16.7773 42.6934 16.3535 42.6934 15.9004V15.7773ZM43.7773 15.9004C43.7773 16.209 43.8105 16.502 43.877 16.7793C43.9434 17.0566 44.0469 17.3008 44.1875 17.5117C44.3242 17.7227 44.5 17.8906 44.7148 18.0156C44.9297 18.1367 45.1875 18.1973 45.4883 18.1973C45.8516 18.1973 46.1523 18.1152 46.3906 17.9512C46.6289 17.7871 46.8184 17.5664 46.959 17.2891V14.3477C46.8184 14.0898 46.6289 13.8789 46.3906 13.7148C46.1523 13.5469 45.8555 13.4629 45.5 13.4629C45.1953 13.4629 44.9336 13.5254 44.7148 13.6504C44.5 13.7754 44.3242 13.9434 44.1875 14.1543C44.0469 14.3691 43.9434 14.6172 43.877 14.8984C43.8105 15.1758 43.7773 15.4688 43.7773 15.7773V15.9004Z" fill="#E5E7EB"/>
<path d="M49.9004 15.7773C49.9004 15.3047 49.959 14.8711 50.0762 14.4766C50.1973 14.0781 50.3691 13.7363 50.5918 13.4512C50.8105 13.166 51.0762 12.9434 51.3887 12.7832C51.7012 12.623 52.0508 12.543 52.4375 12.543C52.8164 12.543 53.1465 12.6074 53.4277 12.7363C53.7129 12.8613 53.959 13.0449 54.166 13.2871V10H55.25V19H54.2539L54.207 18.332C53.9961 18.5898 53.7441 18.7852 53.4512 18.918C53.1582 19.0508 52.8164 19.1172 52.4258 19.1172C52.043 19.1172 51.6953 19.0352 51.3828 18.8711C51.0742 18.707 50.8105 18.4805 50.5918 18.1914C50.373 17.9023 50.2031 17.5625 50.082 17.1719C49.9609 16.7773 49.9004 16.3535 49.9004 15.9004V15.7773ZM50.9844 15.9004C50.9844 16.209 51.0176 16.502 51.084 16.7793C51.1504 17.0566 51.2539 17.3008 51.3945 17.5117C51.5312 17.7227 51.707 17.8906 51.9219 18.0156C52.1367 18.1367 52.3945 18.1973 52.6953 18.1973C53.0586 18.1973 53.3594 18.1152 53.5977 17.9512C53.8359 17.7871 54.0254 17.5664 54.166 17.2891V14.3477C54.0254 14.0898 53.8359 13.8789 53.5977 13.7148C53.3594 13.5469 53.0625 13.4629 52.707 13.4629C52.4023 13.4629 52.1406 13.5254 51.9219 13.6504C51.707 13.7754 51.5312 13.9434 51.3945 14.1543C51.2539 14.3691 51.1504 14.6172 51.084 14.8984C51.0176 15.1758 50.9844 15.4688 50.9844 15.7773V15.9004Z" fill="#E5E7EB"/>
<path d="M57.2012 19V10.4688H59.1758C59.5078 10.4727 59.8203 10.5078 60.1133 10.5742C60.4102 10.6367 60.6836 10.7266 60.9336 10.8438C61.2812 11.0039 61.5879 11.2148 61.8535 11.4766C62.123 11.7344 62.3379 12.0332 62.498 12.373C62.6426 12.6621 62.752 12.9785 62.8262 13.3223C62.9043 13.666 62.9453 14.0332 62.9492 14.4238V15.0508C62.9492 15.4258 62.9121 15.7812 62.8379 16.1172C62.7676 16.4531 62.6641 16.7617 62.5273 17.043C62.3867 17.3359 62.209 17.6016 61.9941 17.8398C61.7793 18.0781 61.5391 18.2812 61.2734 18.4492C60.9922 18.625 60.6738 18.7598 60.3184 18.8535C59.9668 18.9473 59.5859 18.9961 59.1758 19H57.2012ZM58.3027 11.3594V18.1152H59.1758C59.4883 18.1113 59.7715 18.0723 60.0254 17.998C60.2832 17.9238 60.5117 17.8184 60.7109 17.6816C60.9219 17.541 61.1035 17.3691 61.2559 17.166C61.4121 16.959 61.5352 16.7285 61.625 16.4746C61.7031 16.2676 61.7617 16.0449 61.8008 15.8066C61.8398 15.5645 61.8613 15.3125 61.8652 15.0508V14.4121C61.8613 14.1465 61.8379 13.8926 61.7949 13.6504C61.7559 13.4043 61.6953 13.1758 61.6133 12.9648C61.5078 12.6914 61.3652 12.4453 61.1855 12.2266C61.0098 12.0039 60.793 11.8242 60.5352 11.6875C60.3516 11.5859 60.1465 11.5078 59.9199 11.4531C59.6934 11.3945 59.4453 11.3633 59.1758 11.3594H58.3027Z" fill="#E5E7EB"/>
<path d="M65.252 12.6602H68.4512V19.041C68.4512 19.4473 68.3945 19.8066 68.2812 20.1191C68.1719 20.4316 68.0117 20.6934 67.8008 20.9043C67.5859 21.1191 67.3242 21.2812 67.0156 21.3906C66.7109 21.5039 66.3633 21.5605 65.9727 21.5605C65.8516 21.5605 65.7344 21.5586 65.6211 21.5547C65.5078 21.5508 65.3965 21.5449 65.2871 21.5371C65.1973 21.5293 65.1074 21.5176 65.0176 21.502C64.9277 21.4902 64.834 21.4766 64.7363 21.4609L64.8125 20.5703C64.8789 20.582 64.9629 20.5918 65.0645 20.5996C65.166 20.6113 65.2695 20.6191 65.375 20.623C65.4766 20.6309 65.5742 20.6348 65.668 20.6348C65.7656 20.6387 65.8418 20.6406 65.8965 20.6406C66.0996 20.6406 66.291 20.6133 66.4707 20.5586C66.6504 20.5078 66.8066 20.4199 66.9395 20.2949C67.0723 20.1699 67.1758 20.0039 67.25 19.7969C67.3281 19.5938 67.3672 19.3418 67.3672 19.041V13.6035H65.252V12.6602ZM67.2148 10.9902C67.2148 10.8145 67.2676 10.666 67.373 10.5449C67.4785 10.4199 67.6406 10.3574 67.8594 10.3574C68.0781 10.3574 68.2422 10.4199 68.3516 10.5449C68.4609 10.666 68.5156 10.8145 68.5156 10.9902C68.5156 11.166 68.4609 11.3145 68.3516 11.4355C68.2422 11.5527 68.0781 11.6113 67.8594 11.6113C67.6406 11.6113 67.4785 11.5527 67.373 11.4355C67.2676 11.3145 67.2148 11.166 67.2148 10.9902Z" fill="#E5E7EB"/>
<path d="M75.8926 19C75.8496 18.918 75.8145 18.8164 75.7871 18.6953C75.7637 18.5703 75.7461 18.4414 75.7344 18.3086C75.625 18.418 75.502 18.5215 75.3652 18.6191C75.2324 18.7168 75.0859 18.8027 74.9258 18.877C74.7617 18.9512 74.5879 19.0098 74.4043 19.0527C74.2207 19.0957 74.0254 19.1172 73.8184 19.1172C73.4824 19.1172 73.1777 19.0684 72.9043 18.9707C72.6348 18.873 72.4062 18.7402 72.2188 18.5723C72.0273 18.4082 71.8789 18.2129 71.7734 17.9863C71.6719 17.7559 71.6211 17.5078 71.6211 17.2422C71.6211 16.8945 71.6895 16.5898 71.8262 16.3281C71.9668 16.0664 72.1641 15.8477 72.418 15.6719C72.6719 15.5 72.9766 15.3711 73.332 15.2852C73.6914 15.1992 74.0918 15.1562 74.5332 15.1562H75.7168V14.6582C75.7168 14.4668 75.6816 14.2949 75.6113 14.1426C75.541 13.9902 75.4414 13.8594 75.3125 13.75C75.1836 13.6445 75.0254 13.5625 74.8379 13.5039C74.6543 13.4453 74.4473 13.416 74.2168 13.416C74.002 13.416 73.8086 13.4434 73.6367 13.498C73.4688 13.5527 73.3262 13.625 73.209 13.7148C73.0918 13.8047 73 13.9121 72.9336 14.0371C72.8711 14.1582 72.8398 14.2852 72.8398 14.418H71.75C71.7539 14.1875 71.8125 13.9609 71.9258 13.7383C72.043 13.5156 72.2109 13.3145 72.4297 13.1348C72.6445 12.959 72.9062 12.8164 73.2148 12.707C73.5273 12.5977 73.8809 12.543 74.2754 12.543C74.6348 12.543 74.9688 12.5879 75.2773 12.6777C75.5859 12.7637 75.8535 12.8945 76.0801 13.0703C76.3027 13.25 76.4785 13.4727 76.6074 13.7383C76.7363 14.0039 76.8008 14.3145 76.8008 14.6699V17.6172C76.8008 17.8281 76.8203 18.0527 76.8594 18.291C76.8984 18.5254 76.9531 18.7305 77.0234 18.9062V19H75.8926ZM73.9766 18.1738C74.1875 18.1738 74.3848 18.1465 74.5684 18.0918C74.752 18.0371 74.9199 17.9648 75.0723 17.875C75.2207 17.7852 75.3496 17.6836 75.459 17.5703C75.5684 17.4531 75.6543 17.332 75.7168 17.207V15.9238H74.709C74.334 15.9238 74.0059 15.957 73.7246 16.0234C73.4473 16.0859 73.2266 16.1836 73.0625 16.3164C72.9453 16.4102 72.8555 16.5215 72.793 16.6504C72.7344 16.7793 72.7051 16.9258 72.7051 17.0898C72.7051 17.2461 72.7305 17.3906 72.7812 17.5234C72.8359 17.6562 72.916 17.7695 73.0215 17.8633C73.127 17.9609 73.2598 18.0371 73.4199 18.0918C73.5801 18.1465 73.7656 18.1738 73.9766 18.1738Z" fill="#E5E7EB"/>
<path d="M78.9336 19V12.6602H79.9062L79.9824 13.5977C80.0762 13.4648 80.1777 13.3438 80.2871 13.2344C80.4004 13.1211 80.5195 13.0234 80.6445 12.9414C80.832 12.8164 81.0352 12.7207 81.2539 12.6543C81.4766 12.584 81.7109 12.5469 81.957 12.543C82.2891 12.543 82.5898 12.5898 82.8594 12.6836C83.1328 12.7773 83.3652 12.9238 83.5566 13.123C83.748 13.3223 83.8945 13.5762 83.9961 13.8848C84.1016 14.1895 84.1543 14.5527 84.1543 14.9746V19H83.0703V14.998C83.0703 14.7168 83.0391 14.4785 82.9766 14.2832C82.9141 14.0879 82.8223 13.9297 82.7012 13.8086C82.5762 13.6875 82.4238 13.5996 82.2441 13.5449C82.0684 13.4902 81.8652 13.4629 81.6348 13.4629C81.4355 13.4629 81.25 13.4922 81.0781 13.5508C80.9062 13.6055 80.748 13.6816 80.6035 13.7793C80.4863 13.8652 80.377 13.9648 80.2754 14.0781C80.1777 14.1914 80.0918 14.3164 80.0176 14.4531V19H78.9336Z" fill="#E5E7EB"/>
<path d="M85.9414 15.7773C85.9414 15.3047 85.998 14.8711 86.1113 14.4766C86.2285 14.0781 86.3965 13.7363 86.6152 13.4512C86.834 13.166 87.0996 12.9434 87.4121 12.7832C87.7246 12.623 88.0781 12.543 88.4727 12.543C88.7266 12.543 88.959 12.5723 89.1699 12.6309C89.3848 12.6895 89.5781 12.7754 89.75 12.8887C89.8438 12.9473 89.9316 13.0156 90.0137 13.0938C90.0996 13.1719 90.1797 13.2578 90.2539 13.3516L90.3066 12.6602H91.291V18.8652C91.291 19.2832 91.2246 19.6543 91.0918 19.9785C90.9629 20.3027 90.7812 20.5781 90.5469 20.8047C90.3086 21.0312 90.0254 21.2031 89.6973 21.3203C89.3691 21.4375 89.0059 21.4961 88.6074 21.4961C88.4434 21.4961 88.2559 21.4766 88.0449 21.4375C87.834 21.4023 87.6211 21.3418 87.4062 21.2559C87.1875 21.1738 86.9766 21.0625 86.7734 20.9219C86.5742 20.7812 86.4023 20.6074 86.2578 20.4004L86.8203 19.75C86.9531 19.9102 87.0898 20.0449 87.2305 20.1543C87.3711 20.2676 87.5137 20.3574 87.6582 20.4238C87.8027 20.4902 87.9473 20.5371 88.0918 20.5645C88.2363 20.5957 88.3809 20.6113 88.5254 20.6113C88.7832 20.6113 89.0156 20.5742 89.2227 20.5C89.4297 20.4258 89.6074 20.3164 89.7559 20.1719C89.9004 20.0312 90.0117 19.8555 90.0898 19.6445C90.168 19.4336 90.207 19.1914 90.207 18.918V18.373C90.125 18.4668 90.0371 18.5527 89.9434 18.6309C89.8535 18.709 89.7559 18.7773 89.6504 18.8359C89.4863 18.9258 89.3047 18.9941 89.1055 19.041C88.9062 19.0918 88.6914 19.1172 88.4609 19.1172C88.0742 19.1172 87.7246 19.0352 87.4121 18.8711C87.0996 18.707 86.8359 18.4805 86.6211 18.1914C86.4023 17.9023 86.2344 17.5625 86.1172 17.1719C86 16.7773 85.9414 16.3535 85.9414 15.9004V15.7773ZM87.0254 15.9004C87.0254 16.209 87.0566 16.502 87.1191 16.7793C87.1855 17.0566 87.2891 17.3008 87.4297 17.5117C87.5664 17.7227 87.7422 17.8906 87.957 18.0156C88.1719 18.1367 88.4297 18.1973 88.7305 18.1973C88.918 18.1973 89.0859 18.1758 89.2344 18.1328C89.3867 18.0859 89.5234 18.0215 89.6445 17.9395C89.7617 17.8574 89.8672 17.7598 89.9609 17.6465C90.0547 17.5332 90.1367 17.4082 90.207 17.2715V14.3652C90.1367 14.2324 90.0547 14.1113 89.9609 14.002C89.8672 13.8926 89.7598 13.7969 89.6387 13.7148C89.5176 13.6367 89.3828 13.5762 89.2344 13.5332C89.0859 13.4863 88.9219 13.4629 88.7422 13.4629C88.4375 13.4629 88.1758 13.5254 87.957 13.6504C87.7422 13.7754 87.5664 13.9434 87.4297 14.1543C87.2891 14.3691 87.1855 14.6172 87.1191 14.8984C87.0566 15.1758 87.0254 15.4688 87.0254 15.7773V15.9004Z" fill="#E5E7EB"/>
<path d="M93.043 15.7715C93.043 15.3145 93.1094 14.8906 93.2422 14.5C93.375 14.1055 93.5664 13.7637 93.8164 13.4746C94.0625 13.1855 94.3633 12.959 94.7188 12.7949C95.0742 12.627 95.4746 12.543 95.9199 12.543C96.3691 12.543 96.7715 12.627 97.127 12.7949C97.4863 12.959 97.791 13.1855 98.041 13.4746C98.2871 13.7637 98.4766 14.1055 98.6094 14.5C98.7422 14.8906 98.8086 15.3145 98.8086 15.7715V15.9004C98.8086 16.3574 98.7422 16.7812 98.6094 17.1719C98.4766 17.5625 98.2871 17.9023 98.041 18.1914C97.791 18.4805 97.4883 18.707 97.1328 18.8711C96.7773 19.0352 96.377 19.1172 95.9316 19.1172C95.4824 19.1172 95.0781 19.0352 94.7188 18.8711C94.3633 18.707 94.0625 18.4805 93.8164 18.1914C93.5664 17.9023 93.375 17.5625 93.2422 17.1719C93.1094 16.7812 93.043 16.3574 93.043 15.9004V15.7715ZM94.127 15.9004C94.127 16.2129 94.1641 16.5117 94.2383 16.7969C94.3125 17.0781 94.4258 17.3262 94.5781 17.541C94.7266 17.7559 94.9141 17.9258 95.1406 18.0508C95.3672 18.1758 95.6309 18.2383 95.9316 18.2383C96.2285 18.2383 96.4883 18.1758 96.7109 18.0508C96.9375 17.9258 97.127 17.7559 97.2793 17.541C97.4277 17.3262 97.5391 17.0781 97.6133 16.7969C97.6875 16.5117 97.7246 16.2129 97.7246 15.9004V15.7715C97.7246 15.4629 97.6855 15.168 97.6074 14.8867C97.5332 14.6016 97.4219 14.3516 97.2734 14.1367C97.1211 13.9219 96.9316 13.752 96.7051 13.627C96.4824 13.498 96.2207 13.4336 95.9199 13.4336C95.6191 13.4336 95.3574 13.498 95.1348 13.627C94.9121 13.752 94.7266 13.9219 94.5781 14.1367C94.4258 14.3516 94.3125 14.6016 94.2383 14.8867C94.1641 15.168 94.127 15.4629 94.127 15.7715V15.9004Z" fill="#E5E7EB"/>
</svg>
